<svg width="65" height="65" viewBox="0 0 65 65" fill="none" xmlns="http://www.w3.org/2000/svg">
    <g clip-path="url(#clip0_331_2473)">
    <path d="M65 32.5C65 14.5507 50.4493 0 32.5 0C14.5507 0 0 14.5507 0 32.5C0 50.4493 14.5507 65 32.5 65C50.4493 65 65 50.4493 65 32.5Z" fill="#D48D54"/>
    <path d="M18.2812 42.6562C21.0858 42.6562 23.3594 40.3827 23.3594 37.5781C23.3594 34.7736 21.0858 32.5 18.2812 32.5C15.4767 32.5 13.2031 34.7736 13.2031 37.5781C13.2031 40.3827 15.4767 42.6562 18.2812 42.6562Z" fill="#F0BD70"/>
    <path d="M18.2812 41.6406H35.5469V66.8992C35.5469 66.8992 31.847 69.0625 26.9141 69.0625C21.9812 69.0625 18.2812 65.5312 18.2812 65.5312V41.6406Z" fill="#F0BD70"/>
    <path d="M35.5468 54.7097C35.5468 60.452 34.6511 59.9077 28.8265 59.9077C23.0018 59.9077 20.3145 55.253 20.3145 49.5107C20.3145 43.7684 20.0931 38.5938 24.7934 38.5938C38.0859 39.1016 35.5468 48.9673 35.5468 54.7097Z" fill="#E9B05B"/>
    <path d="M46.603 36.6641C46.603 45.7255 50.3466 56.8679 34.0235 56.8679C17.7004 56.8679 17.7003 45.7255 17.7003 36.6641C15.2344 25.8984 15.7422 13.2031 32.5 13.2031C49.2579 13.2031 46.603 27.6016 46.603 36.6641Z" fill="#FFCB7E"/>
    <path d="M38.5938 41.6406H37.5781C37.0172 41.6406 36.5625 42.0953 36.5625 42.6562C36.5625 43.2172 37.0172 43.6719 37.5781 43.6719H38.5938C39.1547 43.6719 39.6094 43.2172 39.6094 42.6562C39.6094 42.0953 39.1547 41.6406 38.5938 41.6406Z" fill="#F0BD70"/>
    <path d="M38.5938 60.9375H16.25C11.2018 60.9375 7.10938 65.0299 7.10938 70.0781V75.1562C7.10938 80.2045 11.2018 84.2969 16.25 84.2969H38.5938C43.642 84.2969 47.7344 80.2045 47.7344 75.1562V70.0781C47.7344 65.0299 43.642 60.9375 38.5938 60.9375Z" fill="#E05A33"/>
    <path fill-rule="evenodd" clip-rule="evenodd" d="M46.6863 32.9906C47.5293 32.5148 48.1747 31.7536 48.5061 30.8442C48.8376 29.9348 48.8333 28.9368 48.4941 28.0302C49.4212 27.5833 50.1442 26.8011 50.5168 25.8417C50.8895 24.8823 50.884 23.8172 50.5017 22.8616C50.1193 21.906 49.3885 21.1312 48.4569 20.6936C47.5253 20.2561 46.4623 20.1885 45.4828 20.5045C46.9219 24.2359 46.8163 28.8509 46.6863 32.9906Z" fill="#47280B"/>
    <path fill-rule="evenodd" clip-rule="evenodd" d="M36.8641 23.1156C35.9386 23.9292 34.7479 24.3771 33.5156 24.375C32.3917 24.3768 31.2993 24.0041 30.4109 23.3157C29.7516 23.9747 28.9689 24.4972 28.1074 24.8533C27.246 25.2093 26.3228 25.3919 25.3906 25.3906C24.6868 25.3911 23.9869 25.287 23.3137 25.0819C23.0489 25.3716 22.7438 25.6217 22.4077 25.8243C22.8076 26.3 23.0929 26.8612 23.2418 27.4645C23.3907 28.0678 23.3993 28.6973 23.2667 29.3044C23.1342 29.9116 22.8641 30.4802 22.4773 30.9666C22.0906 31.453 21.5973 31.8442 21.0356 32.11C21.2033 32.3396 21.3033 32.6116 21.3244 32.8951C21.3455 33.1786 21.2869 33.4624 21.1551 33.7143C21.0233 33.9663 20.8237 34.1763 20.5787 34.3207C20.3338 34.465 20.0534 34.538 19.7691 34.5313C19.2713 35.3975 18.4716 36.05 17.523 36.3638C16.5744 36.6777 15.5434 36.6309 14.6271 36.2325C13.7108 35.8341 12.9734 35.112 12.556 34.2042C12.1385 33.2965 12.0703 32.2667 12.3642 31.3117C11.9858 30.9349 11.6856 30.487 11.4809 29.9937C11.2763 29.5004 11.1713 28.9715 11.1719 28.4375C11.1719 27.3142 11.6279 26.2976 12.3642 25.5633C12.1681 24.9217 12.1338 24.2415 12.2646 23.5835C12.3954 22.9255 12.6872 22.3101 13.1138 21.7923C12.5854 20.8613 12.274 19.823 12.2028 18.7549C12.1316 17.6868 12.3024 16.6164 12.7025 15.6236C13.1026 14.6307 13.7216 13.7409 14.5135 13.0206C15.3053 12.3002 16.2496 11.7679 17.2758 11.4634C17.223 10.7335 17.3684 10.0029 17.6965 9.34876C18.0246 8.69465 18.5233 8.14131 19.14 7.74723C19.7566 7.35314 20.4682 7.13292 21.1996 7.10986C21.9311 7.08679 22.6552 7.26172 23.2954 7.61617C23.9193 6.53527 24.8169 5.63775 25.8979 5.01392C26.9789 4.39008 28.2051 4.06194 29.4531 4.0625C30.8476 4.0625 32.1486 4.46367 33.2465 5.15836C34.0006 4.34597 34.9471 3.73649 35.9988 3.3861C37.0504 3.0357 38.1733 2.95567 39.264 3.15337C40.3547 3.35107 41.3781 3.82014 42.2398 4.51736C43.1015 5.21457 43.7739 6.11749 44.1949 7.14289C44.7322 7.21253 45.2501 7.38894 45.7182 7.66174C46.1863 7.93454 46.5951 8.2982 46.9206 8.73135C47.246 9.16449 47.4815 9.65835 47.6133 10.1839C47.745 10.7094 47.7703 11.256 47.6877 11.7914C49.5716 13.1869 50.7813 15.3481 50.7813 17.7734C50.7813 21.9802 47.1433 25.3906 42.6563 25.3906C40.3884 25.3906 38.3378 24.5192 36.8641 23.1156Z" fill="#47280B"/>
    <path d="M29.381 46.7188C29.381 46.4494 29.488 46.1911 29.6785 46.0006C29.8689 45.8101 30.1272 45.7031 30.3966 45.7031H39.6825C39.9518 45.7031 40.2102 45.8101 40.4006 46.0006C40.5911 46.1911 40.6981 46.4494 40.6981 46.7188C40.6981 48.0656 40.1631 49.3572 39.2107 50.3095C38.2584 51.2619 36.9668 51.7969 35.62 51.7969H34.4591C33.1123 51.7969 31.8207 51.2619 30.8683 50.3095C29.916 49.3572 29.381 48.0656 29.381 46.7188Z" fill="#66253C"/>
    <path fill-rule="evenodd" clip-rule="evenodd" d="M37.3292 51.5023C36.7806 51.698 36.2024 51.7976 35.6199 51.7969H34.4591C33.1474 51.7969 31.8867 51.2894 30.9408 50.3806C29.995 49.4719 29.4375 48.2325 29.385 46.9219C30.1609 46.6314 31.3127 46.6649 32.4492 46.6984C32.8107 46.7086 33.1702 46.7188 33.5156 46.7188C35.7601 46.7188 37.5781 48.3102 37.5781 50.2734C37.5781 50.7051 37.4897 51.1195 37.3292 51.5023Z" fill="#B03E67"/>
    <path d="M30.4688 45.7031H40.625V46.7188C40.625 46.9881 40.518 47.2464 40.3275 47.4369C40.1371 47.6274 39.8787 47.7344 39.6094 47.7344H31.4844C31.215 47.7344 30.9567 47.6274 30.7662 47.4369C30.5758 47.2464 30.4688 46.9881 30.4688 46.7188V45.7031Z" fill="white"/>
    <path d="M33.5156 38.0859C33.5156 37.2446 32.8336 36.5625 31.9922 36.5625C31.1508 36.5625 30.4688 37.2446 30.4688 38.0859V39.1016C30.4688 39.9429 31.1508 40.625 31.9922 40.625C32.8336 40.625 33.5156 39.9429 33.5156 39.1016V38.0859Z" fill="#1B0B47"/>
    <path d="M43.6719 38.0859C43.6719 37.2446 42.9898 36.5625 42.1484 36.5625C41.3071 36.5625 40.625 37.2446 40.625 38.0859V39.1016C40.625 39.9429 41.3071 40.625 42.1484 40.625C42.9898 40.625 43.6719 39.9429 43.6719 39.1016V38.0859Z" fill="#1B0B47"/>
    <path d="M27.9297 39.6094H25.8984C25.0571 39.6094 24.375 40.2914 24.375 41.1328C24.375 41.9742 25.0571 42.6562 25.8984 42.6562H27.9297C28.7711 42.6562 29.4531 41.9742 29.4531 41.1328C29.4531 40.2914 28.7711 39.6094 27.9297 39.6094Z" fill="#FF859B"/>
    <path d="M46.2109 39.6094H45.1953C44.3539 39.6094 43.6719 40.2914 43.6719 41.1328C43.6719 41.9742 44.3539 42.6562 45.1953 42.6562H46.2109C47.0523 42.6562 47.7344 41.9742 47.7344 41.1328C47.7344 40.2914 47.0523 39.6094 46.2109 39.6094Z" fill="#FF859B"/>
    </g>
    <defs>
    <clipPath id="clip0_331_2473">
    <rect width="65" height="65" rx="32.5" fill="white"/>
    </clipPath>
    </defs>
    </svg>
    